<?xml version="1.0" encoding="utf-8"?>
<!-- Generator: Adobe Illustrator 21.0.0, SVG Export Plug-In . SVG Version: 6.00 Build 0)  -->
<svg version="1.1" xmlns="http://www.w3.org/2000/svg" xmlns:xlink="http://www.w3.org/1999/xlink" x="0px" y="0px"
	 viewBox="0 0 64 64" style="enable-background:new 0 0 64 64;" xml:space="preserve">
<style type="text/css">
	.st0{fill:#805142;}
	.st1{fill:#B2876D;}
	.st2{fill:#704639;}
	.st3{fill:#966857;}
	.st4{fill:#FFA426;}
	.st5{fill:#F5D882;}
	.st6{fill:#FFC247;}
	.st7{fill:#FE8205;}
	.st8{fill:#7E8596;}
	.st9{fill:#AFB4C8;}
	.st10{fill:#DCE1EB;}
	.st11{fill:#B4F5F0;}
	.st12{fill:#64E1DC;}
	.st13{fill:#FF9500;}
	.st14{fill:#1CADB5;}
	.st15{fill:#19CFFC;}
	.st16{fill:#F5CD62;}
	.st17{fill:#00C8C8;}
	.st18{fill:#CBF7F7;}
	.st19{fill:#E9EDF5;}
	.st20{fill:#CDD2E1;}
	.st21{fill:#9196AA;}
</style>
<g id="_x30_1-Security">
</g>
<g id="_x30_2-currency">
</g>
<g id="_x30_3-bitcoin">
</g>
<g id="_x30_4-Bitcoin">
</g>
<g id="_x30_5-Analytics">
</g>
<g id="_x30_6-Bitcoin">
</g>
<g id="_x30_7-Bitcoin">
</g>
<g id="_x30_8-Mining">
</g>
<g id="_x30_9-Encryption">
</g>
<g id="_x31_0-Bitcoin_Wallet">
</g>
<g id="_x31_1-Bitcoin_Accepted">
</g>
<g id="_x31_2-Cloud">
</g>
<g id="_x31_3-Bitcoin">
</g>
<g id="_x31_4-bitcoin">
</g>
<g id="_x31_5-Etherum">
</g>
<g id="_x31_6-Etherum">
</g>
<g id="_x31_7-Payment_Method">
</g>
<g id="_x31_8-Etherum">
</g>
<g id="_x31_9-bitcoin">
</g>
<g id="_x32_0-Search">
</g>
<g id="_x32_1-Ecommerce">
	<g>
		<g>
			<g>
				<g>
					<polygon class="st8" points="41,57 40,60 24,60 23,57 					"/>
				</g>
				<g>
					<path class="st9" d="M40,60l1-3h20h2v4c0,1.1-0.9,2-2,2H3c-1.1,0-2-0.9-2-2v-4h2h20l1,3H40z"/>
				</g>
				<g>
					<path class="st10" d="M61,17v40H41H23H3V17c0-1.1,0.9-2,2-2h54C60.1,15,61,15.9,61,17z M57,53V19H7v34H57z"/>
				</g>
				<g>
					<rect x="7" y="19" class="st11" width="50" height="34"/>
				</g>
				<g>
					<rect x="7" y="19" class="st12" width="3" height="34"/>
				</g>
			</g>
			<g>
				<g>
					<circle class="st5" cx="25" cy="36" r="12"/>
				</g>
				<g>
					<path class="st6" d="M16,36c0-6.1,4.6-11.2,10.5-11.9C26,24,25.5,24,25,24c-6.6,0-12,5.4-12,12s5.4,12,12,12c0.5,0,1,0,1.5-0.1
						C20.6,47.2,16,42.1,16,36z"/>
				</g>
				<g>
					<path class="st7" d="M30.6,36c0.8-0.7,1.4-1.8,1.4-3c0-2.2-1.8-4-4-4v-2h-2v2h-2v-2h-2v2h-1h-2v2h1v5v5h-1v2h2h1v2h2v-2h2v2h2
						v-2c2.2,0,4-1.8,4-4C32,37.8,31.5,36.7,30.6,36z M22,31h6c1.1,0,2,0.9,2,2s-0.9,2-2,2h-6V31z M28,41h-6v-4h6c1.1,0,2,0.9,2,2
						S29.1,41,28,41z"/>
				</g>
			</g>
			<g>
				<g>
					<g>
						<g>
							<path class="st13" d="M14,24h-3c-0.6,0-1-0.4-1-1V10H4V8h7c0.6,0,1,0.4,1,1v13h2V24z"/>
						</g>
					</g>
					<g>
						<g>
							<rect x="16" y="22" class="st7" width="2" height="2"/>
						</g>
					</g>
					<g>
						<g>
							<path class="st7" d="M23,19h-2v-9h-5c-0.6,0-1-0.4-1-1V4h2v4h5c0.6,0,1,0.4,1,1V19z"/>
						</g>
					</g>
					<g>
						<g>
							<path class="st13" d="M53,24h-3v-2h2V9c0-0.6,0.4-1,1-1h7v2h-6v13C54,23.6,53.6,24,53,24z"/>
						</g>
					</g>
					<g>
						<g>
							<path class="st7" d="M43,13h-2V9c0-0.6,0.4-1,1-1h5V4h2v5c0,0.6-0.4,1-1,1h-5V13z"/>
						</g>
					</g>
					<g>
						<g>
							<rect x="11" y="47" class="st14" width="28" height="2"/>
						</g>
					</g>
					<g>
						<g>
							<rect x="41" y="47" class="st14" width="2" height="2"/>
						</g>
					</g>
					<g>
						<g>
							<rect x="33" y="5" class="st5" width="2" height="6"/>
						</g>
					</g>
					<g>
						<g>
							<rect x="33" y="1" class="st5" width="2" height="2"/>
						</g>
					</g>
					<g>
						<g>
							<rect x="37" y="1" class="st6" width="2" height="8"/>
						</g>
					</g>
					<g>
						<path class="st15" d="M53.4,32.1C53.3,32,53.1,32,53,32v0h-5v2h2.6L47,37.6l-1.3-1.3c-0.4-0.4-1-0.4-1.4,0l-6,6l1.4,1.4
							l5.3-5.3l1.3,1.3c0.4,0.4,1,0.4,1.4,0l4.3-4.3V38h2v-5C54,32.6,53.8,32.2,53.4,32.1z"/>
					</g>
				</g>
				<g>
					<g>
						<circle class="st16" cx="16" cy="3" r="2"/>
					</g>
					<g>
						<circle class="st16" cx="3" cy="9" r="2"/>
					</g>
					<g>
						<circle class="st16" cx="48" cy="3" r="2"/>
					</g>
					<g>
						<circle class="st16" cx="61" cy="9" r="2"/>
					</g>
					<g>
						<g>
							<circle class="st12" cx="42" cy="19" r="7"/>
						</g>
						<g>
							<path class="st17" d="M38,19c0-3.4,2.4-6.1,5.5-6.8C43,12.1,42.5,12,42,12c-3.9,0-7,3.1-7,7s3.1,7,7,7c0.5,0,1-0.1,1.5-0.2
								C40.4,25.1,38,22.4,38,19z"/>
						</g>
						<g>
							<g>
								<path class="st18" d="M40,23c-0.3,0-0.5-0.1-0.7-0.3l-2-2l1.4-1.4l1.3,1.3l5.3-5.3l1.4,1.4l-6,6C40.5,22.9,40.3,23,40,23z"
									/>
							</g>
						</g>
					</g>
				</g>
			</g>
		</g>
		<g>
			<path d="M63,56h-1V17c0-1.7-1.3-3-3-3h-4v2h4c0.6,0,1,0.4,1,1v39H4V17c0-0.6,0.4-1,1-1h4v-2H5c-1.7,0-3,1.3-3,3v39H1
				c-0.6,0-1,0.4-1,1v4c0,1.7,1.3,3,3,3h58c1.7,0,3-1.3,3-3v-4C64,56.4,63.6,56,63,56z M39.6,58l-0.3,1H24.7l-0.3-1H39.6z M62,61
				c0,0.6-0.4,1-1,1H3c-0.6,0-1-0.4-1-1v-3h1h19.3l0.8,2.3c0.1,0.4,0.5,0.7,0.9,0.7h16c0.4,0,0.8-0.3,0.9-0.7l0.8-2.3H61h1V61z"/>
			<path d="M18.1,47H11v2h28v-2h-7.1c3.7-2.3,6.1-6.4,6.1-11c0-7.2-5.8-13-13-13c-7.2,0-13,5.8-13,13C12,40.6,14.4,44.7,18.1,47z
				 M25,25c6.1,0,11,4.9,11,11s-4.9,11-11,11c-6.1,0-11-4.9-11-11S18.9,25,25,25z"/>
			<path d="M22,43v2h2v-2h2v2h2v-2c2.2,0,4-1.8,4-4c0-1.2-0.5-2.3-1.4-3c0.8-0.7,1.4-1.8,1.4-3c0-2.2-1.8-4-4-4v-2h-2v2h-2v-2h-2v2
				h-1h-2v2h1v5v5h-1v2h2H22z M30,39c0,1.1-0.9,2-2,2h-6v-4h6C29.1,37,30,37.9,30,39z M22,31h6c1.1,0,2,0.9,2,2s-0.9,2-2,2h-6V31z"
				/>
			<path d="M3,12c1.3,0,2.4-0.8,2.8-2H10v8H7c-0.6,0-1,0.4-1,1v34c0,0.6,0.4,1,1,1h50c0.6,0,1-0.4,1-1V19c0-0.6-0.4-1-1-1h-3v-8h4.2
				c0.4,1.2,1.5,2,2.8,2c1.7,0,3-1.3,3-3s-1.3-3-3-3c-1.3,0-2.4,0.8-2.8,2H53c-0.6,0-1,0.4-1,1v9h-2.1c-0.1-0.7-0.3-1.4-0.5-2H51v-2
				h-2.8c-1.3-1.6-3.1-2.7-5.2-2.9V10h5c0.6,0,1-0.4,1-1V5.8c1.2-0.4,2-1.5,2-2.8c0-1.7-1.3-3-3-3c-1.7,0-3,1.3-3,3
				c0,1.3,0.8,2.4,2,2.8V8h-5c-0.6,0-1,0.4-1,1v2.1c-2.1,0.3-4,1.4-5.2,2.9H24v2h10.6c-0.3,0.6-0.4,1.3-0.5,2H23V9c0-0.6-0.4-1-1-1
				h-5V5.8c1.2-0.4,2-1.5,2-2.8c0-1.7-1.3-3-3-3c-1.7,0-3,1.3-3,3c0,1.3,0.8,2.4,2,2.8V9c0,0.6,0.4,1,1,1h5v8h-9V9c0-0.6-0.4-1-1-1
				H5.8C5.4,6.8,4.3,6,3,6C1.3,6,0,7.3,0,9S1.3,12,3,12z M61,8c0.6,0,1,0.4,1,1s-0.4,1-1,1c-0.6,0-1-0.4-1-1S60.4,8,61,8z M48,2
				c0.6,0,1,0.4,1,1s-0.4,1-1,1c-0.6,0-1-0.4-1-1S47.4,2,48,2z M16,2c0.6,0,1,0.4,1,1s-0.4,1-1,1c-0.6,0-1-0.4-1-1S15.4,2,16,2z
				 M42,13c3.3,0,6,2.7,6,6s-2.7,6-6,6c-3.3,0-6-2.7-6-6S38.7,13,42,13z M34.1,20c0.5,3.9,3.9,7,7.9,7c4.1,0,7.4-3.1,7.9-7H52v2h-2
				v2h3c0.6,0,1-0.4,1-1v-3h2v32H8V20h2v3c0,0.6,0.4,1,1,1h3v-2h-2v-2H34.1z M3,8c0.6,0,1,0.4,1,1s-0.4,1-1,1c-0.6,0-1-0.4-1-1
				S2.4,8,3,8z"/>
			<rect x="16" y="22" width="2" height="2"/>
			<rect x="13" y="14" width="7" height="2"/>
			<rect x="41" y="47" width="2" height="2"/>
			<rect x="33" y="5" width="2" height="6"/>
			<rect x="33" y="1" width="2" height="2"/>
			<rect x="37" y="1" width="2" height="8"/>
			<path d="M45,38.4l1.3,1.3c0.4,0.4,1,0.4,1.4,0l4.3-4.3V38h2v-5c0-0.4-0.2-0.8-0.6-0.9C53.3,32,53.1,32,53,32v0h-5v2h2.6L47,37.6
				l-1.3-1.3c-0.4-0.4-1-0.4-1.4,0l-6,6l1.4,1.4L45,38.4z"/>
			<path d="M39.3,22.7c0.2,0.2,0.5,0.3,0.7,0.3c0.3,0,0.5-0.1,0.7-0.3l6-6l-1.4-1.4L40,20.6l-1.3-1.3l-1.4,1.4L39.3,22.7z"/>
		</g>
	</g>
</g>
<g id="_x32_2-Safebox">
</g>
<g id="_x32_3-Mining">
</g>
<g id="_x32_4-Database">
</g>
<g id="_x32_5-Mining">
</g>
<g id="_x32_6-Exchange">
</g>
<g id="_x32_7-Digital_Key">
</g>
<g id="_x32_8-Credit_Card">
</g>
<g id="_x32_9-Bitcoin">
</g>
<g id="_x33_0-Store">
</g>
</svg>
