<?xml version="1.0" encoding="utf-8"?>
<!-- Generator: Adobe Illustrator 21.0.0, SVG Export Plug-In . SVG Version: 6.00 Build 0)  -->
<svg version="1.1" xmlns="http://www.w3.org/2000/svg" xmlns:xlink="http://www.w3.org/1999/xlink" x="0px" y="0px"
	 viewBox="0 0 64 64" style="enable-background:new 0 0 64 64;" xml:space="preserve">
<style type="text/css">
	.st0{fill:#805142;}
	.st1{fill:#B2876D;}
	.st2{fill:#704639;}
	.st3{fill:#966857;}
	.st4{fill:#FFA426;}
	.st5{fill:#F5D882;}
	.st6{fill:#FFC247;}
	.st7{fill:#FE8205;}
	.st8{fill:#7E8596;}
	.st9{fill:#AFB4C8;}
	.st10{fill:#DCE1EB;}
	.st11{fill:#B4F5F0;}
	.st12{fill:#64E1DC;}
	.st13{fill:#FF9500;}
	.st14{fill:#1CADB5;}
	.st15{fill:#19CFFC;}
	.st16{fill:#F5CD62;}
	.st17{fill:#00C8C8;}
	.st18{fill:#CBF7F7;}
	.st19{fill:#E9EDF5;}
	.st20{fill:#CDD2E1;}
	.st21{fill:#9196AA;}
</style>
<g id="_x30_1-Security">
</g>
<g id="_x30_2-currency">
</g>
<g id="_x30_3-bitcoin">
</g>
<g id="_x30_4-Bitcoin">
</g>
<g id="_x30_5-Analytics">
</g>
<g id="_x30_6-Bitcoin">
</g>
<g id="_x30_7-Bitcoin">
</g>
<g id="_x30_8-Mining">
</g>
<g id="_x30_9-Encryption">
</g>
<g id="_x31_0-Bitcoin_Wallet">
</g>
<g id="_x31_1-Bitcoin_Accepted">
</g>
<g id="_x31_2-Cloud">
</g>
<g id="_x31_3-Bitcoin">
</g>
<g id="_x31_4-bitcoin">
</g>
<g id="_x31_5-Etherum">
</g>
<g id="_x31_6-Etherum">
</g>
<g id="_x31_7-Payment_Method">
</g>
<g id="_x31_8-Etherum">
</g>
<g id="_x31_9-bitcoin">
</g>
<g id="_x32_0-Search">
</g>
<g id="_x32_1-Ecommerce">
</g>
<g id="_x32_2-Safebox">
	<g>
		<g>
			<g>
				<g>
					<rect x="53" y="55" class="st8" width="6" height="4"/>
				</g>
				<g>
					<rect x="5" y="55" class="st8" width="6" height="4"/>
				</g>
				<g>
					<polygon class="st8" points="11,38 11,42 8,42 5,42 5,38 8,38 					"/>
				</g>
				<g>
					<polygon class="st8" points="11,18 11,22 8,22 5,22 5,18 8,18 					"/>
				</g>
				<g>
					<polygon class="st19" points="58,10 58,50 8,50 8,42 11,42 11,38 8,38 8,22 11,22 11,18 8,18 8,10 					"/>
				</g>
				<g>
					<g>
						<rect x="8" y="22" class="st20" width="3" height="16"/>
					</g>
					<g>
						<rect x="8" y="42" class="st20" width="3" height="8"/>
					</g>
					<g>
						<rect x="11" y="38" class="st20" width="3" height="4"/>
					</g>
					<g>
						<rect x="11" y="18" class="st20" width="3" height="4"/>
					</g>
					<g>
						<rect x="8" y="10" class="st20" width="3" height="8"/>
					</g>
				</g>
				<g>
					<path class="st9" d="M63,9v42c0,2.2-1.8,4-4,4h-6H11H5c-2.2,0-4-1.8-4-4V9c0-2.2,1.8-4,4-4h54C61.2,5,63,6.8,63,9z M58,50V10H8
						v8H5v4h3v16H5v4h3v8H58z"/>
				</g>
				<g>
					<g>
						<rect x="58" y="10" class="st21" width="3" height="40"/>
					</g>
					<g>
						<path class="st21" d="M4,51V9c0-2.2,1.8-4,4-4H5C2.8,5,1,6.8,1,9v42c0,2.2,1.8,4,4,4h3C5.8,55,4,53.2,4,51z"/>
					</g>
				</g>
			</g>
			<g>
				<g>
					<circle class="st4" cx="34" cy="30" r="16"/>
				</g>
				<g>
					<circle class="st5" cx="34" cy="30" r="12"/>
				</g>
				<g>
					<path class="st6" d="M25,30c0-6.1,4.6-11.2,10.5-11.9C35,18,34.5,18,34,18c-6.6,0-12,5.4-12,12s5.4,12,12,12c0.5,0,1,0,1.5-0.1
						C29.6,41.2,25,36.1,25,30z"/>
				</g>
				<g>
					<path class="st7" d="M39.6,30c0.8-0.7,1.4-1.8,1.4-3c0-2.2-1.8-4-4-4v-2h-2v2h-2v-2h-2v2h-1h-2v2h1v5v5h-1v2h2h1v2h2v-2h2v2h2
						v-2c2.2,0,4-1.8,4-4C41,31.8,40.5,30.7,39.6,30z M31,25h6c1.1,0,2,0.9,2,2s-0.9,2-2,2h-6V25z M37,35h-6v-4h6c1.1,0,2,0.9,2,2
						S38.1,35,37,35z"/>
				</g>
			</g>
		</g>
		<g>
			<path d="M59,4H5C2.2,4,0,6.2,0,9v42c0,2.4,1.7,4.4,4,4.9V59c0,0.6,0.4,1,1,1h6c0.6,0,1-0.4,1-1v-3h40v3c0,0.6,0.4,1,1,1h6
				c0.6,0,1-0.4,1-1v-3.1c2.3-0.5,4-2.5,4-4.9V9C64,6.2,61.8,4,59,4z M10,58H6v-2h4V58z M54,58v-2h4v2H54z M62,51c0,1.7-1.3,3-3,3H5
				c-1.7,0-3-1.3-3-3V9c0-1.7,1.3-3,3-3h54c1.7,0,3,1.3,3,3V51z"/>
			<path d="M58,9H8c-0.6,0-1,0.4-1,1v7H5c-0.6,0-1,0.4-1,1v4c0,0.6,0.4,1,1,1h2v14H5c-0.6,0-1,0.4-1,1v4c0,0.6,0.4,1,1,1h2v7
				c0,0.6,0.4,1,1,1h50c0.6,0,1-0.4,1-1V10C59,9.4,58.6,9,58,9z M6,19h4v2H6V19z M6,39h4v2H6V39z M57,49H9v-6h2c0.6,0,1-0.4,1-1v-4
				c0-0.6-0.4-1-1-1H9V23h2c0.6,0,1-0.4,1-1v-4c0-0.6-0.4-1-1-1H9v-6h48V49z"/>
			<path d="M34,47c9.4,0,17-7.6,17-17s-7.6-17-17-17s-17,7.6-17,17S24.6,47,34,47z M34,15c8.3,0,15,6.7,15,15s-6.7,15-15,15
				c-8.3,0-15-6.7-15-15S25.7,15,34,15z"/>
			<path d="M34,43c7.2,0,13-5.8,13-13s-5.8-13-13-13s-13,5.8-13,13S26.8,43,34,43z M34,19c6.1,0,11,4.9,11,11s-4.9,11-11,11
				c-6.1,0-11-4.9-11-11S27.9,19,34,19z"/>
			<path d="M31,37v2h2v-2h2v2h2v-2c2.2,0,4-1.8,4-4c0-1.2-0.5-2.3-1.4-3c0.8-0.7,1.4-1.8,1.4-3c0-2.2-1.8-4-4-4v-2h-2v2h-2v-2h-2v2
				h-1h-2v2h1v5v5h-1v2h2H31z M39,33c0,1.1-0.9,2-2,2h-6v-4h6C38.1,31,39,31.9,39,33z M31,25h6c1.1,0,2,0.9,2,2s-0.9,2-2,2h-6V25z"
				/>
		</g>
	</g>
</g>
<g id="_x32_3-Mining">
</g>
<g id="_x32_4-Database">
</g>
<g id="_x32_5-Mining">
</g>
<g id="_x32_6-Exchange">
</g>
<g id="_x32_7-Digital_Key">
</g>
<g id="_x32_8-Credit_Card">
</g>
<g id="_x32_9-Bitcoin">
</g>
<g id="_x33_0-Store">
</g>
</svg>
