<?xml version="1.0" encoding="utf-8"?>
<!-- Generator: Adobe Illustrator 21.0.0, SVG Export Plug-In . SVG Version: 6.00 Build 0)  -->
<svg version="1.1" xmlns="http://www.w3.org/2000/svg" xmlns:xlink="http://www.w3.org/1999/xlink" x="0px" y="0px"
	 viewBox="0 0 64 64" style="enable-background:new 0 0 64 64;" xml:space="preserve">
<style type="text/css">
	.st0{fill:#805142;}
	.st1{fill:#B2876D;}
	.st2{fill:#704639;}
	.st3{fill:#966857;}
	.st4{fill:#FFA426;}
	.st5{fill:#F5D882;}
	.st6{fill:#FFC247;}
	.st7{fill:#FE8205;}
	.st8{fill:#7E8596;}
	.st9{fill:#AFB4C8;}
	.st10{fill:#DCE1EB;}
	.st11{fill:#B4F5F0;}
	.st12{fill:#64E1DC;}
	.st13{fill:#FF9500;}
	.st14{fill:#1CADB5;}
	.st15{fill:#19CFFC;}
	.st16{fill:#F5CD62;}
	.st17{fill:#00C8C8;}
	.st18{fill:#CBF7F7;}
	.st19{fill:#E9EDF5;}
	.st20{fill:#CDD2E1;}
	.st21{fill:#9196AA;}
</style>
<g id="_x30_1-Security">
</g>
<g id="_x30_2-currency">
</g>
<g id="_x30_3-bitcoin">
</g>
<g id="_x30_4-Bitcoin">
</g>
<g id="_x30_5-Analytics">
</g>
<g id="_x30_6-Bitcoin">
</g>
<g id="_x30_7-Bitcoin">
</g>
<g id="_x30_8-Mining">
</g>
<g id="_x30_9-Encryption">
</g>
<g id="_x31_0-Bitcoin_Wallet">
</g>
<g id="_x31_1-Bitcoin_Accepted">
</g>
<g id="_x31_2-Cloud">
</g>
<g id="_x31_3-Bitcoin">
	<g>
		<g>
			<g>
				<g>
					<g>
						<rect x="27" y="13" class="st0" width="10" height="4"/>
					</g>
					<g>
						<path class="st1" d="M23,1h18c0,6-4,12-4,12H27C27,13,23,7,23,1z"/>
					</g>
					<g>
						<path class="st1" d="M53.7,51.7c2,1,3.3,3.1,3.3,5.5c-0.1,3.3-3,5.8-6.3,5.8c-8.1,0-29.4,0-37.5,0C10,63,7.1,60.5,7,57.2
							c-0.1-2.4,1.3-4.5,3.3-5.5c1.7-0.9,2.7-2.6,2.7-4.5V31c0-7.7,6.3-14,14-14h10c7.7,0,14,6.3,14,14v16.2
							C51,49.1,52.1,50.8,53.7,51.7z"/>
					</g>
				</g>
				<g>
					<g>
						<rect x="27" y="13" class="st2" width="3" height="4"/>
					</g>
					<g>
						<path class="st3" d="M23,1c0,6,4,12,4,12h3c0,0-4-6-4-12H23z"/>
					</g>
					<g>
						<path class="st3" d="M10,57.2c-0.1-2.4,1.3-4.5,3.3-5.5c1.7-0.9,2.7-2.6,2.7-4.5V31c0-7.7,6.3-14,14-14h-3
							c-7.7,0-14,6.3-14,14v16.2c0,1.9-1.1,3.6-2.7,4.5c-2,1-3.3,3.1-3.3,5.5c0.1,3.3,3,5.8,6.3,5.8c0.9,0,1.9,0,3,0
							C13,63,10.1,60.5,10,57.2z"/>
					</g>
				</g>
			</g>
			<g>
				<g>
					<circle class="st4" cx="32" cy="40" r="16"/>
				</g>
				<g>
					<circle class="st5" cx="32" cy="40" r="12"/>
				</g>
				<g>
					<path class="st6" d="M23,40c0-6.1,4.6-11.2,10.5-11.9C33,28,32.5,28,32,28c-6.6,0-12,5.4-12,12s5.4,12,12,12c0.5,0,1,0,1.5-0.1
						C27.6,51.2,23,46.1,23,40z"/>
				</g>
				<g>
					<path class="st7" d="M37.6,40c0.8-0.7,1.4-1.8,1.4-3c0-2.2-1.8-4-4-4v-2h-2v2h-2v-2h-2v2h-1h-2v2h1v5v5h-1v2h2h1v2h2v-2h2v2h2
						v-2c2.2,0,4-1.8,4-4C39,41.8,38.5,40.7,37.6,40z M29,35h6c1.1,0,2,0.9,2,2s-0.9,2-2,2h-6V35z M35,45h-6v-4h6c1.1,0,2,0.9,2,2
						S36.1,45,35,45z"/>
				</g>
			</g>
		</g>
		<g>
			<path d="M54.2,50.8c-1.3-0.7-2.2-2.1-2.2-3.6V31c0-7.9-6.2-14.4-14-14.9v-2.8c0.8-1.2,4-6.7,4-12.3c0-0.6-0.4-1-1-1H23
				c-0.6,0-1,0.4-1,1c0,5.6,3.2,11.1,4,12.3v2.8c-7.8,0.5-14,7-14,14.9v16.2c0,1.5-0.8,2.9-2.2,3.6C7.4,52,5.9,54.5,6,57.2
				C6.1,61,9.4,64,13.2,64h37.5c3.9,0,7.1-3,7.2-6.8C58.1,54.5,56.6,52,54.2,50.8z M36,16h-8v-2h8V16z M27,2
				c0.1,1.7,0.5,5.3,2.1,8.4l1.8-0.9C29.5,6.8,29.2,3.6,29,2H35c-0.1,1.6-0.5,4.8-1.8,7.6l1.8,0.9c1.6-3.1,2-6.7,2.1-8.4h3
				c-0.3,4.4-2.7,8.7-3.5,10h-8.9c-0.8-1.3-3.2-5.6-3.5-10H27z M50.8,62H13.2c-2.8,0-5.2-2.2-5.2-4.8c-0.1-1.9,1-3.7,2.7-4.6
				c2-1,3.3-3.1,3.3-5.3V31c0-7.2,5.8-13,13-13h10c7.2,0,13,5.8,13,13v16.2c0,2.3,1.3,4.3,3.3,5.3c1.7,0.9,2.8,2.7,2.7,4.6
				C55.9,59.8,53.6,62,50.8,62z"/>
			<path d="M32,23c-9.4,0-17,7.6-17,17s7.6,17,17,17s17-7.6,17-17S41.4,23,32,23z M32,55c-8.3,0-15-6.7-15-15c0-8.3,6.7-15,15-15
				s15,6.7,15,15C47,48.3,40.3,55,32,55z"/>
			<path d="M32,27c-7.2,0-13,5.8-13,13c0,7.2,5.8,13,13,13s13-5.8,13-13C45,32.8,39.2,27,32,27z M32,51c-6.1,0-11-4.9-11-11
				s4.9-11,11-11s11,4.9,11,11S38.1,51,32,51z"/>
			<path d="M39,37c0-2.2-1.8-4-4-4v-2h-2v2h-2v-2h-2v2h-1h-2v2h1v5v5h-1v2h2h1v2h2v-2h2v2h2v-2c2.2,0,4-1.8,4-4c0-1.2-0.5-2.3-1.4-3
				C38.5,39.3,39,38.2,39,37z M37,43c0,1.1-0.9,2-2,2h-6v-4h6C36.1,41,37,41.9,37,43z M29,39v-4h6c1.1,0,2,0.9,2,2s-0.9,2-2,2H29z"
				/>
		</g>
	</g>
</g>
<g id="_x31_4-bitcoin">
</g>
<g id="_x31_5-Etherum">
</g>
<g id="_x31_6-Etherum">
</g>
<g id="_x31_7-Payment_Method">
</g>
<g id="_x31_8-Etherum">
</g>
<g id="_x31_9-bitcoin">
</g>
<g id="_x32_0-Search">
</g>
<g id="_x32_1-Ecommerce">
</g>
<g id="_x32_2-Safebox">
</g>
<g id="_x32_3-Mining">
</g>
<g id="_x32_4-Database">
</g>
<g id="_x32_5-Mining">
</g>
<g id="_x32_6-Exchange">
</g>
<g id="_x32_7-Digital_Key">
</g>
<g id="_x32_8-Credit_Card">
</g>
<g id="_x32_9-Bitcoin">
</g>
<g id="_x33_0-Store">
</g>
</svg>
